<?xml version="1.0" encoding="UTF-8" standalone="no"?>
<!-- Created with Inkscape (http://www.inkscape.org/) -->

<svg
   xmlns:dc="http://purl.org/dc/elements/1.1/"
   xmlns:cc="http://creativecommons.org/ns#"
   xmlns:rdf="http://www.w3.org/1999/02/22-rdf-syntax-ns#"
   xmlns:svg="http://www.w3.org/2000/svg"
   xmlns="http://www.w3.org/2000/svg"
   xmlns:sodipodi="http://sodipodi.sourceforge.net/DTD/sodipodi-0.dtd"
   xmlns:inkscape="http://www.inkscape.org/namespaces/inkscape"
   width="210mm"
   height="297mm"
   viewBox="0 0 744.09448819 1052.3622047"
   id="svg2"
   version="1.1"
   inkscape:version="0.91 r13725"
   sodipodi:docname="drawing.svg">
  <defs
     id="defs4" />
  <sodipodi:namedview
     id="base"
     pagecolor="#ffffff"
     bordercolor="#666666"
     borderopacity="1.0"
     inkscape:pageopacity="0.0"
     inkscape:pageshadow="2"
     inkscape:zoom="0.7"
     inkscape:cx="444.62691"
     inkscape:cy="532.26812"
     inkscape:document-units="px"
     inkscape:current-layer="layer1"
     showgrid="false"
     inkscape:window-width="1366"
     inkscape:window-height="706"
     inkscape:window-x="-8"
     inkscape:window-y="-8"
     inkscape:window-maximized="1" />
  <metadata
     id="metadata7">
    <rdf:RDF>
      <cc:Work
         rdf:about="">
        <dc:format>image/svg+xml</dc:format>
        <dc:type
           rdf:resource="http://purl.org/dc/dcmitype/StillImage" />
        <dc:title></dc:title>
      </cc:Work>
    </rdf:RDF>
  </metadata>
  <g
     inkscape:label="Layer 1"
     inkscape:groupmode="layer"
     id="layer1">
    <path
       style="fill:none;fill-rule:evenodd;stroke:#000000;stroke-width:1px;stroke-linecap:butt;stroke-linejoin:miter;stroke-opacity:1"
       d="m 180,523.79078 c 2.41041,-9.36632 12.48919,-12.55414 17.14286,-20 2.71822,-4.34916 3.16972,-9.83273 5.71428,-14.28572 2.67294,-4.67764 9.01922,-6.60986 11.42857,-11.42857 2.69374,-5.38748 3.65584,-11.48212 5.71429,-17.14286 1.75271,-4.81994 3.96158,-9.46577 5.71429,-14.28571 2.05845,-5.66074 4.2534,-11.29932 5.71428,-17.14286 0.46197,-1.84789 -0.85183,-4.01061 0,-5.71428 1.20468,-2.40936 4.65317,-3.23835 5.71429,-5.71429 9.78047,-22.82111 -2.6059,-6.21678 5.71428,-22.85714 17.76556,-26.64834 -0.38447,4.01057 5.71429,-14.28572 0.42592,-1.27775 1.90476,-1.90476 2.85714,-2.85714 0.95238,-2.85714 2.1267,-5.64966 2.85714,-8.57143 0.23099,-0.92394 -0.23098,-1.9332 0,-2.85714 1.68161,-6.72642 4.21022,-13.23167 5.71429,-20 0.8264,-3.71881 -1.20468,-7.81454 0,-11.42857 0.42592,-1.27776 2.2548,-1.65247 2.85714,-2.85715 0.85184,-1.70367 -0.85183,-4.01061 0,-5.71428 1.20468,-2.40936 4.50961,-3.30493 5.71429,-5.71429 0.85183,-1.70367 -1.34687,-4.36741 0,-5.71428 0.67343,-0.67344 2.18371,0.67343 2.85714,0 0.67344,-0.67344 -0.67343,-2.18371 0,-2.85715 0.67344,-0.67343 2.00531,0.42592 2.85714,0 1.20468,-0.60233 1.65247,-2.2548 2.85715,-2.85714 0.85183,-0.42592 2.1837,0.67344 2.85714,0 1.50585,-1.50584 1.3513,-4.20844 2.85714,-5.71428 1.01877,-7.01861 6.06555,-1.18656 8.57143,-2.85715 2.24133,-1.49421 3.47296,-4.22006 5.71429,-5.71428 0.79243,-0.52829 1.95363,0.30117 2.85714,0 2.02031,-0.67344 3.69398,-2.18371 5.71429,-2.85715 3.72525,-1.24175 7.70331,-1.61539 11.42857,-2.85714 1.90476,-0.95238 3.80952,-1.90476 5.71428,-2.85714 0,-0.95238 -0.67343,-2.18371 0,-2.85714 0.18309,-0.18309 10.89637,-5.35949 11.42857,-5.71429 1.12067,-0.74711 1.73648,-2.11003 2.85715,-2.85714 1.90476,-0.95238 3.80952,-1.90476 5.71428,-2.85715 0.95238,0 2.00531,0.42592 2.85715,0 1.20467,-0.60233 1.65246,-2.2548 2.85714,-2.85714 1.70367,-0.85183 4.36741,1.34687 5.71428,0 5.91153,-5.91153 -9.0336,0.23109 2.85715,-5.71428 1.97352,-0.98677 13.2828,1.00291 14.28571,0 0.67344,-0.67344 -0.67343,-2.18371 0,-2.85715 0.67344,-0.67343 1.90476,0 2.85714,0 0.95239,0 1.90477,0 2.85715,0 9.52381,0 19.04762,0 28.57143,0 8.57142,0 17.14285,0 25.71428,0 2.3001,0 9.63528,-0.59776 11.42857,0 5.17126,-1.72208 5.31379,4.62841 8.57143,5.71429 1.80702,0.60234 3.80953,0 5.71429,0 0.95238,0 2.0053,-0.42592 2.85714,0 1.20468,0.60234 1.65247,2.2548 2.85714,2.85714 1.70367,0.85184 4.36742,-1.34687 5.71429,0 1.34687,1.34687 -1.34687,4.36742 0,5.71429 0.67343,0.67343 2.18371,-0.67344 2.85714,0 0.67344,0.67343 -0.42592,2.00531 0,2.85714 0.60234,1.20468 2.25481,1.65247 2.85714,2.85714 0.42592,0.85184 -0.42591,2.00531 0,2.85715 0.90522,1.81043 4.80907,3.90385 5.71429,5.71428 0.42592,0.85184 -0.67344,2.18371 0,2.85714 1.50585,1.50585 4.20844,1.3513 5.71429,2.85715 0.67343,0.67343 -0.42592,2.00531 0,2.85714 0.60233,1.20468 2.2548,1.65247 2.85714,2.85714 0.77005,1.5401 -0.77005,4.17419 0,5.71429 0.60234,1.20468 2.2548,1.65246 2.85714,2.85714 0.42592,0.85184 -0.42592,2.00531 0,2.85714 0.60234,1.20468 2.25481,1.65247 2.85714,2.85715 0.42592,0.85183 -0.42591,2.00531 0,2.85714 0.60234,1.20468 2.43123,1.57939 2.85715,2.85714 0.60234,1.80702 -0.60234,3.90727 0,5.71429 0.42591,1.27775 2.43122,1.57939 2.85714,2.85714 0.60234,1.80702 -0.85184,4.01062 0,5.71429 0.42592,0.85183 2.18371,-0.67344 2.85714,0 0.67344,0.67343 0,1.90476 0,2.85714 0.95238,0 2.18371,-0.67343 2.85715,0 1.34687,1.34687 -0.85184,4.01062 0,5.71429 0.60233,1.20467 2.2548,1.65246 2.85714,2.85714 0.85183,1.70367 -0.85184,4.01061 0,5.71428 0.60234,1.20468 2.2548,1.65247 2.85714,2.85715 0.42592,0.85183 -0.67343,2.18371 0,2.85714 0.67344,0.67344 2.18371,-0.67343 2.85714,0 1.42858,1.42857 -1.42857,7.14286 0,8.57143 0.67344,0.67343 2.18371,-0.67344 2.85715,0 1.34687,1.34687 -0.85184,4.01061 0,5.71428 0.60234,1.20468 2.2548,1.65247 2.85714,2.85715 0.43476,0.86952 0,7.28469 0,8.57143 0,5.71428 0,11.42857 0,17.14285 0,4.76191 0,9.52381 0,14.28572 0,0.95238 0,1.90476 0,2.85714 0,0.95238 0.42592,2.00531 0,2.85714 -9.47595,9.47595 1.34687,-2.69374 -2.85714,5.71429 -0.60234,1.20468 -2.25481,1.65246 -2.85715,2.85714 -0.42591,0.85184 0.42592,2.00531 0,2.85714 -0.60233,1.20468 -2.2548,1.65247 -2.85714,2.85715 -0.42592,0.85183 0.42592,2.00531 0,2.85714 -1.97132,3.94265 -3.74296,1.77164 -5.71428,5.71429 -0.42592,0.85183 0.67343,2.1837 0,2.85714 -0.67344,0.67343 -2.18371,-0.67344 -2.85715,0 -0.67343,0.67343 0.42592,2.00531 0,2.85714 -0.60234,1.20468 -2.2548,1.65247 -2.85714,2.85714 -0.42592,0.85184 0.67344,2.18371 0,2.85715 -0.67344,0.67343 -1.95363,-0.30117 -2.85714,0 -2.02031,0.67343 -3.69398,2.18371 -5.71429,2.85714 -0.90351,0.30117 -2.18371,-0.67343 -2.85714,0 -0.67344,0.67344 0.85183,2.43123 0,2.85714 -1.70367,0.85184 -4.01062,-0.85183 -5.71429,0 -0.85183,0.42592 0.42592,2.00531 0,2.85715 -0.60234,1.20467 -1.65246,2.2548 -2.85714,2.85714 -0.85184,0.42592 -1.90476,0 -2.85714,0 -1.90476,0.95238 -3.94236,1.67586 -5.71429,2.85714 -2.24133,1.49422 -3.30493,4.50961 -5.71428,5.71429 -0.85184,0.42592 -2.00531,-0.42592 -2.85715,0 -1.20467,0.60234 -1.65246,2.2548 -2.85714,2.85714 -0.85184,0.42592 -1.90476,0 -2.85714,0 -0.95238,0.95238 -1.65247,2.2548 -2.85715,2.85714 -1.70367,0.85184 -4.01061,-0.85183 -5.71428,0 -1.20468,0.60234 -1.65247,2.25481 -2.85714,2.85715 -0.86953,0.43476 -7.2847,0 -8.57143,0 -0.95238,0 -2.18371,0.67343 -2.85715,0 -0.67343,-0.67344 0.67344,-2.18371 0,-2.85715 -0.003,-0.003 -8.55847,0.004 -8.57142,0 -2.55551,-0.85183 -3.47296,-4.22006 -5.71429,-5.71428 -1.77192,-1.18129 -4.20844,-1.3513 -5.71429,-2.85715 -0.67343,-0.67343 0.67344,-2.1837 0,-2.85714 -0.67343,-0.67343 -2.0053,0.42592 -2.85714,0 -11.89074,-5.94537 3.05439,0.19725 -2.85714,-5.71428 -0.67344,-0.67344 -2.18371,0.67343 -2.85714,0 -0.67344,-0.67344 0.67343,-2.18371 0,-2.85715 -0.67344,-0.67343 -2.18371,0.67344 -2.85715,0 -1.34687,-1.34687 0.85184,-4.01061 0,-5.71428 -0.60234,-1.20468 -2.2548,-1.65247 -2.85714,-2.85715 -0.43476,-0.86952 0,-7.28469 0,-8.57142 0,-7.36642 -0.63865,-13.00841 2.85714,-20 4.35652,-8.71304 2.26504,5.22555 5.71429,-8.57143 0.46197,-1.84789 -0.46197,-3.8664 0,-5.71429 3.44924,-13.79698 1.35777,0.14161 5.71428,-8.57143 0.42592,-0.85183 0,-1.90476 0,-2.85714 0.95239,-1.90476 1.67586,-3.94236 2.85715,-5.71429 1.45544,-2.18316 7.85741,-7.5004 8.57143,-8.57142 0.52828,-0.79243 -0.30117,-1.95364 0,-2.85715 0.67343,-2.0203 2.1837,-3.69398 2.85714,-5.71428 0.30117,-0.90351 -0.67344,-2.18371 0,-2.85715 0.67343,-0.67343 2.18371,0.67344 2.85714,0 1.34687,-1.34687 -1.34687,-4.36741 0,-5.71428 0.67344,-0.67344 1.90476,0 2.85714,0 4.76191,0 9.52381,0 14.28572,0 1.29255,0 16.38143,-0.38071 17.14286,0 1.20467,0.60234 1.57939,2.43122 2.85714,2.85714 1.80701,0.60234 4.06049,-0.94502 5.71428,0 7.15748,4.08999 11.78028,8.92314 17.14286,14.28572 0.95238,0.95238 1.65247,2.2548 2.85714,2.85714 0.85184,0.42592 2.43123,-0.85184 2.85715,0 0.85183,1.70367 -0.60234,3.90727 0,5.71428 0.42591,1.27776 2.11003,1.73648 2.85714,2.85715 1.18128,1.77192 1.57939,4.01061 2.85714,5.71428 17.49582,17.49582 -3.61403,-4.81871 8.57143,11.42857 1.61625,2.155 4.50961,3.30494 5.71429,5.71429 0.95238,3.80952 1.90476,7.61905 2.85714,11.42857 1.90476,0.95238 4.7619,0.95238 5.71429,2.85714 9.91829,19.8366 -6.69584,1.8756 2.85714,11.42858 9.197,9.197 -4.20401,-5.55089 2.85714,8.57142 0.42592,0.85184 2.18371,-0.67343 2.85714,0 1.50585,1.50585 1.67586,3.94237 2.85715,5.71429 0.74711,1.12066 2.11003,1.73648 2.85714,2.85714 1.18128,1.77193 1.67586,3.94236 2.85714,5.71429 0.74711,1.12066 2.25481,1.65246 2.85715,2.85714 0.32018,0.64037 0,10.74963 0,11.42857 0,5.71429 0,11.42857 0,17.14286 0,6.66667 0,13.33333 0,20 0,1.90476 0.46197,3.8664 0,5.71429 -0.51651,2.066 -2.34065,3.64828 -2.85715,5.71428 -0.46197,1.84789 0.46198,3.8664 0,5.71429 -1.033,4.13201 -4.13246,7.47402 -5.71428,11.42857 -1.11852,2.79629 -1.73863,5.77514 -2.85715,8.57143 -2.36453,5.91133 -6.20689,11.23152 -8.57142,17.14285 -1.11852,2.79629 -1.73863,5.77515 -2.85715,8.57143 -1.58182,3.95455 -4.13246,7.47403 -5.71428,11.42857 -1.64633,4.11582 -2.84264,10.45686 -5.71429,14.28572 -3.23249,4.30998 -8.65673,6.80884 -11.42857,11.42857 -1.5495,2.58251 -1.51027,5.87769 -2.85714,8.57143 -1.53567,3.07134 -4.04666,5.5697 -5.71429,8.57143 -3.10266,5.58478 -4.73817,12.03184 -8.57143,17.14285 -2.06031,2.74709 -6.14332,3.28619 -8.57143,5.71429 -1.50584,1.50585 -1.47122,4.09738 -2.85714,5.71429 -4.38266,5.1131 -9.90306,9.17261 -14.28571,14.28571 -1.38592,1.6169 -1.76148,3.88818 -2.85715,5.71429 -1.7667,2.94451 -3.56917,5.89003 -5.71428,8.57142 -1.68277,2.10346 -3.80953,3.80953 -5.71429,5.71429 -1.90476,1.90476 -3.80952,3.80952 -5.71428,5.71429 -0.95238,0.95238 -1.73648,2.11003 -2.85715,2.85714 -1.77192,1.18128 -4.01061,1.57939 -5.71428,2.85714 -3.55664,2.66748 -11.02575,11.02575 -14.28572,14.28572 -0.95238,0.95238 -1.77964,2.04902 -2.85714,2.85714 -2.74709,2.06031 -5.82434,3.65397 -8.57143,5.71428 -1.07749,0.80813 -1.73648,2.11004 -2.85714,2.85715 -1.77192,1.18128 -3.94236,1.67586 -5.71429,2.85714 -1.12066,0.74711 -1.65246,2.2548 -2.85714,2.85714 -0.85183,0.42592 -1.90476,0 -2.85714,0 -1.90476,0 -3.90727,-0.60234 -5.71429,0 -1.27775,0.42592 -1.65246,2.25481 -2.85714,2.85715 -0.85184,0.42591 -2.00531,-0.42592 -2.85714,0 -1.20468,0.60233 -1.65247,2.2548 -2.85715,2.85714 -1.70367,0.85183 -4.01061,-0.85184 -5.71428,0 -1.20468,0.60234 -1.65247,2.2548 -2.85714,2.85714 -0.85184,0.42592 -1.95364,-0.30117 -2.85715,0 -2.0203,0.67344 -3.69398,2.18371 -5.71428,2.85714 -2.71053,0.90351 -5.7996,-0.69295 -8.57143,0 -2.06601,0.51651 -3.64828,2.34065 -5.71429,2.85715 -1.84789,0.46197 -3.80952,0 -5.71428,0 -5.71429,0 -11.42857,0 -17.14286,0 -6.66667,0 -13.33333,0 -20,0 -2.85714,0 -5.8609,0.90351 -8.57143,0 -1.27775,-0.42592 -1.57939,-2.43123 -2.85714,-2.85715 -1.80702,-0.60233 -3.8664,0.46198 -5.71429,0 -2.066,-0.5165 -3.64828,-2.34064 -5.71428,-2.85714 -1.84789,-0.46197 -3.90727,0.60234 -5.71429,0 -1.27775,-0.42592 -1.90476,-1.90476 -2.85714,-2.85714 -1.90476,-0.95238 -3.69398,-2.18371 -5.71429,-2.85714 -3.72526,-1.24176 -7.8193,-1.31032 -11.42857,-2.85715 -3.15621,-1.35266 -5.82434,-3.65397 -8.57143,-5.71428 -1.07749,-0.80812 -1.57939,-2.43123 -2.85714,-2.85715 -1.80702,-0.60233 -3.8664,0.46198 -5.71429,0 -3.73202,-0.933 -12.09104,-7.25462 -14.28571,-8.57142 -1.82611,-1.09567 -3.94236,-1.67586 -5.71429,-2.85715 -1.12066,-0.74711 -1.73647,-2.11003 -2.85714,-2.85714 -1.77192,-1.18128 -3.94236,-1.67586 -5.71428,-2.85714 -1.12067,-0.74711 -1.73648,-2.11004 -2.85715,-2.85715 -1.77192,-1.18128 -4.20844,-1.35129 -5.71428,-2.85714 -0.67344,-0.67343 0.67343,-2.18371 0,-2.85714 -0.67344,-0.67344 -2.00531,0.42592 -2.85715,0 -1.20467,-0.60234 -1.65246,-2.25481 -2.85714,-2.85714 -0.85183,-0.42592 -2.18371,0.67343 -2.85714,0 -0.67344,-0.67344 0.67343,-2.18371 0,-2.85715 -0.67344,-0.67343 -2.00531,0.42592 -2.85714,0 -2.40936,-1.20467 -3.30494,-4.50961 -5.71429,-5.71428 -0.85184,-0.42592 -2.18371,0.67343 -2.85714,0 -0.67344,-0.67344 0.67343,-2.18371 0,-2.85715 -0.67344,-0.67343 -1.90476,0 -2.85715,0 0,-0.95238 0.67344,-2.1837 0,-2.85714 -0.67343,-0.67343 -2.0053,0.42592 -2.85714,0 -1.20468,-0.60234 -1.90476,-1.90476 -2.85714,-2.85714 -0.95238,-0.95238 -2.25481,-1.65247 -2.85714,-2.85714 -0.42592,-0.85184 0.42591,-2.00531 0,-2.85715 -0.60234,-1.20467 -2.25481,-1.65246 -2.85715,-2.85714 -0.85183,-1.70367 1.34687,-4.36742 0,-5.71429 -0.67343,-0.67343 -2.1837,0.67344 -2.85714,0 -0.0919,-0.0919 0,-7.87849 0,-8.57142 0,-3.00863 -0.59193,-11.91801 0,-14.28572 0.73044,-2.92177 2.1267,-5.64966 2.85714,-8.57143 0.23099,-0.92394 -0.42591,-2.0053 0,-2.85714 6.53801,-13.07602 -1.1842,12.12405 5.71429,-8.57143 0.30117,-0.90351 -0.42592,-2.00531 0,-2.85714 5.94537,-11.89075 -0.19725,3.05439 5.71428,-2.85714 0.67344,-0.67344 -0.67343,-2.18371 0,-2.85715 0.67344,-0.67343 2.00531,0.42592 2.85715,0 2.40935,-1.20467 3.30493,-4.50961 5.71428,-5.71428 1.70367,-0.85184 4.01062,0.85183 5.71429,0 1.20468,-0.60234 1.65246,-2.25481 2.85714,-2.85715 1.51497,-0.75748 12.342,0.64791 14.28572,0 1.27775,-0.42591 1.65246,-2.2548 2.85714,-2.85714 0.86867,-0.43434 9.45565,0 11.42857,0 5.71429,0 11.42857,0 17.14286,0 1.28673,0 7.7019,-0.43476 8.57143,0 1.20467,0.60234 1.65246,2.25481 2.85714,2.85714 2.28571,1.14286 6.28571,-1.14285 8.57143,0 0.85183,0.42592 -0.67344,2.18371 0,2.85715 0.67343,0.67343 2.0053,-0.42592 2.85714,0 1.20468,0.60234 1.65247,2.2548 2.85714,2.85714 0.85184,0.42592 2.18371,-0.67343 2.85715,0 0.67343,0.67344 -0.67344,2.18371 0,2.85714 7.61904,0 -0.95239,-0.95238 2.85714,2.85715 0.67343,0.67343 2.43122,-0.85184 2.85714,0 0.85184,1.70367 -0.85183,4.01061 0,5.71428 0.42592,0.85184 2.18371,-0.67343 2.85714,0 0.67344,0.67344 -0.67343,2.18371 0,2.85714 0.67344,0.67344 2.18371,-0.67343 2.85715,0 1.34687,1.34687 -0.85184,4.01062 0,5.71429 0.60234,1.20468 2.2548,1.65247 2.85714,2.85714 0.89789,1.79578 -0.89789,9.6328 0,11.42857 0.60234,1.20468 2.43123,1.57939 2.85714,2.85715 0.60234,1.80701 -0.60234,3.90727 0,5.71428 0.42592,1.27776 2.25481,1.65247 2.85715,2.85715 0.42591,0.85183 -0.30117,1.95363 0,2.85714 0.67343,2.0203 2.1837,3.69398 2.85714,5.71428 0.30117,0.90351 -0.30117,1.95364 0,2.85715 6.89849,20.69547 -0.82373,-4.50459 5.71428,8.57143 0.43477,0.86952 0,7.28469 0,8.57142 0,8.57143 0,17.14286 0,25.71429 0,14.28571 0,28.57143 0,42.85714 0,1.11718 0.41077,18.7677 0,20 -0.42591,1.27776 -2.11003,1.73648 -2.85714,2.85715 -1.18128,1.77192 -2.18371,3.69398 -2.85714,5.71428 -0.85714,2.57143 0.85714,6 0,8.57143 -0.85184,2.55551 -4.50961,3.30493 -5.71429,5.71429 -0.42591,0.85183 0.42592,2.0053 0,2.85714 -9.47595,9.47595 1.34687,-2.69374 -2.85714,5.71428 -1.20468,2.40936 -4.50961,3.30494 -5.71429,5.71429 -0.42591,0.85184 0.67344,2.18371 0,2.85714 -0.67343,0.67344 -2.1837,-0.67343 -2.85714,0 -0.67343,0.67344 0.52829,2.06472 0,2.85715 -1.49422,2.24132 -3.80952,3.80952 -5.71428,5.71428 -0.95239,0.95238 -1.65247,2.25481 -2.85715,2.85714 -0.85183,0.42592 -2.0053,-0.42591 -2.85714,0 -1.20468,0.60234 -1.65247,2.25481 -2.85714,2.85715 -1.5585,0.77925 -4.15579,-0.77925 -5.71429,0 -1.20468,0.60234 -1.65246,2.2548 -2.85714,2.85714 -0.85184,0.42592 -1.90476,0 -2.85714,0 -0.95239,0 -1.90477,0 -2.85715,0 -6.66666,0 -13.33333,0 -20,0 -2.85714,0 -5.75316,-0.46971 -8.57143,0 -2.97071,0.49512 -5.60071,2.36202 -8.57142,2.85714 -2.81827,0.46971 -5.71429,0 -8.57143,0 -3.80953,0 -7.61905,0 -11.42857,0 -16.19048,0 -32.38096,0 -48.57143,0 -8.57143,0 -17.14286,0 -25.71429,0 -2.85714,0 -5.8609,0.90351 -8.57143,0 -2.5555,-0.85183 -3.472956,-4.22006 -5.714283,-5.71428 -8.725795,-9.93824 -2.618861,0.11914 -8.571428,-2.85715 -0.02812,-0.0141 -5.686161,-5.70022 -5.714286,-5.71428 -0.851836,-0.42592 -2.005308,0.42592 -2.857143,0 -1.204677,-0.60234 -1.652466,-2.25481 -2.857143,-2.85714 -0.851835,-0.42592 -2.005307,0.42591 -2.857143,0 -0.743856,-0.37193 -4.827653,-3.74378 -2.857143,-5.71429 0.673435,-0.67343 2.005308,0.42592 2.857143,0 1.204677,-0.60234 1.652466,-2.2548 2.857143,-2.85714 1.774378,-0.88719 15.312067,0.91539 17.142857,0 1.204677,-0.60234 1.57939,-2.43123 2.857143,-2.85715 3.614033,-1.20467 7.670883,0.62629 11.428573,0 7.37265,2.95459 11.23644,-4.533 17.14286,-5.71428 4.66943,-0.93389 9.52381,0 14.28571,0 1.90476,0 3.8664,0.46197 5.71429,0 2.066,-0.5165 3.80952,-1.90476 5.71428,-2.85714 2.85714,-0.95238 5.61822,-2.26651 8.57143,-2.85715 4.66943,-0.93388 9.56058,0.59064 14.28571,0 4.81871,-0.60234 9.44945,-2.41748 14.28572,-2.85714 5.69082,-0.51735 11.42857,0 17.14286,0 4.7619,0 9.52381,0 14.28571,0 25.71429,0 51.42857,0 77.14286,0 6.45496,0 -1.27776,-0.42592 8.57143,2.85714 1.80701,0.60234 4.01061,-0.85183 5.71428,0 1.20468,0.60234 1.65247,2.25481 2.85714,2.85715 0.85184,0.42591 2.00531,-0.42592 2.85715,0 1.20467,0.60233 1.65246,2.2548 2.85714,2.85714 0.85184,0.42592 1.95363,-0.30117 2.85714,0 2.02031,0.67343 3.69398,2.18371 5.71429,2.85714 0.90351,0.30117 2.18371,-0.67343 2.85714,0 0.67344,0.67344 -0.67343,2.18371 0,2.85714 1.34687,1.34687 4.01062,-0.85183 5.71429,0 1.20467,0.60234 1.57939,2.43123 2.85714,2.85715 1.80702,0.60234 3.90727,-0.60234 5.71429,0 1.27775,0.42592 1.73647,2.11003 2.85714,2.85714 1.43884,6.29475 5.87769,1.51027 8.57143,2.85714 13.07602,6.53801 -12.12405,-1.1842 8.57143,5.71429 0.9035,0.30117 1.95363,-0.30117 2.85714,0 6,2 11.14286,6.57143 17.14286,8.57143 7.21424,2.40474 -2.97556,-5.8031 8.57142,2.85714 2.155,1.61624 3.30494,4.50961 5.71429,5.71429 1.70367,0.85183 3.94576,-0.70741 5.71429,0 3.18825,1.2753 5.62692,3.94758 8.57142,5.71428 1.82611,1.09567 3.80953,1.90476 5.71429,2.85714 1.90476,0.95239 3.69398,2.18371 5.71429,2.85715 9.4329,3.1443 19.13852,5.42713 28.57142,8.57143 2.85715,0.95238 5.87769,1.51027 8.57143,2.85714 3.07134,1.53567 5.41522,4.36162 8.57143,5.71428 15.44921,6.62109 6.59317,0.62268 20,2.85715 2.97072,0.49512 5.71429,1.90476 8.57143,2.85714 2.85714,0.95238 5.77514,1.73863 8.57143,2.85714 1.97727,0.79091 3.64828,2.34065 5.71428,2.85715 1.84789,0.46197 3.80953,0 5.71429,0 7.61905,0 15.2381,0 22.85714,0 7.61905,0 15.2381,0 22.85715,0 1.28673,0 7.7019,0.43476 8.57142,0 1.20468,-0.60234 1.90477,-1.90477 2.85715,-2.85715 2.23167,-2.23167 6.106,-6.92781 8.57143,-8.57143 1.77192,-1.18128 4.20843,-1.35129 5.71428,-2.85714 1.50585,-1.50584 1.08522,-4.533 2.85714,-5.71428 1.58486,-1.05658 4.01062,0.85183 5.71429,0 2.40935,-1.20468 3.80952,-3.80953 5.71429,-5.71429 2.85714,-2.85714 5.71428,-5.71429 8.57142,-8.57143 0.95239,-0.95238 1.77965,-2.04902 2.85715,-2.85714 2.74708,-2.06032 5.82434,-3.65397 8.57143,-5.71429 3.23248,-2.42436 5.71428,-5.71428 8.57142,-8.57143 0.95239,-0.95238 1.90477,-1.90476 2.85715,-2.85714 0.95238,-0.95238 2.43122,-1.57939 2.85714,-2.85714 0.60234,-1.80702 -0.60234,-3.90727 0,-5.71429 0.85184,-2.5555 4.50961,-3.30493 5.71429,-5.71428 0.42591,-0.85184 -0.42592,-2.00531 0,-2.85715 4.35651,-8.71303 2.26504,5.22556 5.71428,-8.57142 0.46197,-1.84789 0,-3.80953 0,-5.71429 0,-4.7619 0,-9.52381 0,-14.28571 0,-0.95238 0.67344,-2.18371 0,-2.85715 -0.67343,-0.67343 -2.00531,0.42592 -2.85714,0 -2.40936,-1.20467 -3.47296,-4.22006 -5.71429,-5.71428 -3.54385,-2.36257 -7.77635,-3.52296 -11.42857,-5.71429 -2.94451,-1.7667 -5.62692,-3.94758 -8.57143,-5.71428 -3.65221,-2.19133 -7.77635,-3.52296 -11.42857,-5.71429 -2.94451,-1.76671 -5.62692,-3.94758 -8.57143,-5.71429 -5.42599,-3.25559 -11.88068,-5.0633 -17.14285,-8.57142 -2.24133,-1.49422 -3.30494,-4.50961 -5.71429,-5.71429 -3.05854,-1.52927 -6.09737,2.47406 -11.42857,-2.85714 -0.67344,-0.67344 0.67343,-2.18371 0,-2.85715 -0.67344,-0.67343 -2.18371,0.67344 -2.85714,0 -0.67344,-0.67343 0,-1.90476 0,-2.85714 -0.95239,0 -1.97288,0.35371 -2.85715,0 -3.95454,-1.58182 -7.47402,-4.13247 -11.42857,-5.71428 -0.88426,-0.35371 -2.18371,-0.67344 -2.85714,0 -1.34687,1.34687 0.85183,4.01061 0,5.71428 -5.94537,11.89075 0.19724,-3.05439 -5.71429,2.85714 -0.5841,0.58411 0.56642,7.4386 0,8.57143 -0.60234,1.20468 -2.2548,1.65247 -2.85714,2.85715 -0.42592,0.85183 0.42592,2.0053 0,2.85714 -0.60234,1.20468 -2.2548,1.65246 -2.85714,2.85714 -0.42592,0.85184 0.30117,1.95364 0,2.85714 -0.67344,2.02031 -2.18371,3.69399 -2.85715,5.71429 -0.30117,0.90351 0.30117,1.95364 0,2.85714 -0.67343,2.02031 -2.43949,3.62606 -2.85714,5.71429 -0.56033,2.80166 0,5.71428 0,8.57143 0,8.57143 0,17.14285 0,25.71428 0,4.76191 0,9.52381 0,14.28572 0,1.90476 0,3.80952 0,5.71428 0,0.95238 -0.30117,1.95364 0,2.85715 6.89849,20.69547 -0.82372,-4.5046 5.71429,8.57142 0.42591,0.85184 -0.42592,2.00531 0,2.85715 0.60234,1.20467 2.2548,1.65246 2.85714,2.85714 0.42592,0.85184 -0.85184,2.43123 0,2.85714 1.70367,0.85184 3.94576,-0.70741 5.71429,0 3.18825,1.27531 5.50009,4.17862 8.57142,5.71429 0.85184,0.42592 1.90477,0 2.85715,0 1.90476,0.95238 3.94236,1.67586 5.71428,2.85714 1.12067,0.74711 1.65247,2.25481 2.85715,2.85714 1.70367,0.85184 4.01061,-0.85183 5.71428,0 1.20468,0.60234 1.65247,2.25481 2.85714,2.85715 0.85184,0.42592 1.90477,0 2.85715,0 0.95238,0 1.90476,0 2.85714,0 4.7619,0 9.52381,0 14.28571,0 0.7089,0 11.19355,0.15668 11.42858,0 13.25543,2.44483 3.28618,-6.14333 5.71428,-8.57143 0.67344,-0.67344 2.18371,0.67343 2.85714,0 5.07345,-5.07344 1.62521,-6.50083 2.85715,-11.42857 0.73044,-2.92177 1.73863,-5.77514 2.85714,-8.57143 1.58182,-3.95455 4.68128,-7.29656 5.71429,-11.42857 3.269,-13.07602 -5.77109,2.97075 2.85714,-14.28572 0.60234,-1.20467 2.43122,-1.57939 2.85714,-2.85714 0.46269,-1.38808 0,-17.083 0,-20 0,-4.7619 0,-9.52381 0,-14.28571 0,-2.85715 0.90351,-5.86091 0,-8.57143 -0.42592,-1.27776 -2.43122,-1.57939 -2.85714,-2.85715 -0.60234,-1.80701 0.46197,-3.86639 0,-5.71428 -3.44925,-13.79698 -1.35777,0.1416 -5.71429,-8.57143 -3.5185,-7.037 8.29353,2.57924 -2.85714,-8.57143 -1.50585,-1.50584 -4.20844,-1.35129 -5.71429,-2.85714 -1.50584,-1.50585 -1.57939,-4.01062 -2.85714,-5.71429 -1.61624,-2.15499 -3.80952,-3.80952 -5.71428,-5.71428 -1.90477,-1.90476 -3.5593,-4.09804 -5.71429,-5.71429 -1.70367,-1.27775 -4.01061,-1.57939 -5.71429,-2.85714 -2.15499,-1.61625 -3.40442,-4.32837 -5.71428,-5.71429 -2.58251,-1.5495 -5.98892,-1.30764 -8.57143,-2.85714 -2.30986,-1.38592 -3.40442,-4.32837 -5.71429,-5.71429 -2.5825,-1.5495 -5.87768,-1.51027 -8.57142,-2.85714 -3.07134,-1.53567 -5.62692,-3.94758 -8.57143,-5.71428 -5.40566,-3.2434 -11.5025,-5.75125 -17.14286,-8.57143 -1.90476,-0.95238 -4.01061,-1.57939 -5.71429,-2.85715 -2.15499,-1.61624 -3.55929,-4.09804 -5.71428,-5.71428 -3.40734,-2.55551 -7.88472,-3.35172 -11.42857,-5.71429 -1.12067,-0.74711 -1.65247,-2.2548 -2.85715,-2.85714 -2.69374,-1.34687 -5.98892,-1.30764 -8.57142,-2.85714 -2.30987,-1.38592 -3.80953,-3.80953 -5.71429,-5.71429 -0.95238,-0.95238 -1.65247,-2.2548 -2.85714,-2.85714 -2.69374,-1.34687 -6.06555,-1.18656 -8.57143,-2.85714 -3.36199,-2.24133 -5.46735,-5.9847 -8.57143,-8.57143 -3.34049,-5.18502 -9.84308,-5.23946 -14.28571,-8.57143 -2.155,-1.61625 -3.30494,-4.50961 -5.71429,-5.71429 -1.70367,-0.85183 -3.94576,0.70741 -5.71429,0 -3.18825,-1.2753 -5.62692,-3.94758 -8.57142,-5.71428 -1.82611,-1.09567 -3.94237,-1.67586 -5.71429,-2.85715 -1.12066,-0.7471 -1.65247,-2.2548 -2.85714,-2.85714 -2.69374,-1.34687 -5.77514,-1.73863 -8.57143,-2.85714 -1.97727,-0.79091 -3.69398,-2.18371 -5.71429,-2.85714 -8.50523,-2.83508 5.86231,6.76534 -8.57143,-2.85715 -1.12066,-0.74711 -1.65246,-2.2548 -2.85714,-2.85714 -0.85183,-0.42592 -1.90476,0 -2.85714,0 -1.90476,0 -3.90727,0.60234 -5.71429,0 -1.27775,-0.42592 -1.65246,-2.2548 -2.85714,-2.85714 -1.68577,-0.84289 -6.60619,0.65508 -8.57143,0 -2.0203,-0.67344 -3.69398,-2.18371 -5.71428,-2.85715 -1.54631,-0.51543 -10.45522,0 -11.42858,0 -5.71428,0 -11.42857,0 -17.14285,0 -1.90476,0 -3.80953,0 -5.71429,0 -1.90476,0 -4.01061,-0.85183 -5.71428,0 -0.85184,0.42592 0.67343,2.18371 0,2.85715 -0.67344,0.67343 -2.18371,-0.67344 -2.85715,0 -0.28571,0.28571 -0.28571,8.28571 0,8.57143 7.21687,7.21686 3.29368,1.09789 8.57143,2.85714 2.02031,0.67343 3.80953,1.90476 5.71429,2.85714 2.85714,0.95238 5.71428,1.90476 8.57143,2.85714 5.71428,1.90477 11.47038,3.68841 17.14285,5.71429 7.66309,2.73682 15.13757,5.99824 22.85715,8.57143 3.72525,1.24175 7.61904,1.90476 11.42857,2.85714 3.80952,0.95238 7.53212,2.37009 11.42857,2.85714 3.7801,0.47252 7.65733,-0.53874 11.42857,0 2.98142,0.42592 5.71429,1.90477 8.57143,2.85715 5.71428,1.90476 11.55028,3.47725 17.14286,5.71428 1.97727,0.79091 3.69398,2.18371 5.71428,2.85715 1.7933,0.59776 9.12847,0 11.42857,0 0.69294,0 8.47955,0.0919 8.57143,0 0.67344,-0.67344 -0.42592,-2.00531 0,-2.85715 0.60234,-1.20467 2.25481,-1.65246 2.85714,-2.85714 0.42592,-0.85183 -0.42591,-2.00531 0,-2.85714 6.53801,-13.07602 -1.1842,12.12404 5.71429,-8.57143 0.30117,-0.90351 0,-1.90476 0,-2.85714 0,-1.90477 0,-3.80953 0,-5.71429 0,-7.61905 0,-15.23809 0,-22.85714 0,-13.33334 0,-26.66667 0,-40 0,-6.66667 0.8269,-13.38482 0,-20 -0.48706,-3.89645 -1.90476,-7.61905 -2.85714,-11.42857 -0.95238,-3.80953 -1.77838,-7.65289 -2.85715,-11.42858 -0.82737,-2.89581 -2.36202,-5.60071 -2.85714,-8.57142 -2.7998,-16.79878 3.85475,-0.36312 -2.85714,-17.14286 -1.58182,-3.95455 -4.68128,-7.29656 -5.71429,-11.42857 -0.46197,-1.84789 0.46198,-3.8664 0,-5.71429 -0.5165,-2.066 -1.90476,-3.80952 -2.85714,-5.71428 -0.95238,-1.90477 -1.67586,-3.94236 -2.85714,-5.71429 -0.74711,-1.12066 -2.11004,-1.73648 -2.85715,-2.85714 -1.18128,-1.77193 -1.67586,-3.94236 -2.85714,-5.71429 -0.74711,-1.12066 -2.11003,-1.73648 -2.85714,-2.85714 -1.18128,-1.77193 -1.3513,-4.20844 -2.85714,-5.71429 -1.50585,-1.50584 -4.20844,-1.35129 -5.71429,-2.85714 -1.50585,-1.50585 -1.3513,-4.20844 -2.85714,-5.71429 -1.50585,-1.50584 -4.01062,-1.57939 -5.71429,-2.85714 -2.15499,-1.61624 -3.55929,-4.09804 -5.71428,-5.71428 -1.70368,-1.27776 -4.01062,-1.57939 -5.71429,-2.85715 -2.15499,-1.61624 -3.40442,-4.32836 -5.71429,-5.71428 -2.5825,-1.54951 -5.87768,-1.51028 -8.57142,-2.85715 -1.20468,-0.60233 -1.73648,-2.11003 -2.85715,-2.85714 -1.77192,-1.18128 -3.88818,-1.76148 -5.71428,-2.85714 -6.70795,-4.02477 -7.75468,-5.95902 -14.28572,-8.57143 -5.59257,-2.23703 -11.55028,-3.47726 -17.14285,-5.71429 -21.02007,-8.40802 14.14213,3.76167 -14.28572,-5.71428 -5.71428,-1.90476 -11.60649,-3.34156 -17.14286,-5.71429 -3.9148,-1.67777 -7.51377,-4.03651 -11.42857,-5.71428 -5.53636,-2.37273 -11.39906,-3.90046 -17.14285,-5.71429 -15.2381,-4.7619 -30.47619,-9.52381 -45.71429,-14.28571 -1.90476,-0.95238 -3.69398,-2.18371 -5.71429,-2.85715 -0.9035,-0.30116 -1.95363,0.30117 -2.85714,0 -2.0203,-0.67343 -3.69398,-2.1837 -5.71428,-2.85714 -0.90351,-0.30117 -2.00531,0.42592 -2.85715,0 -1.20467,-0.60234 -1.57939,-2.43122 -2.85714,-2.85714 -2.71052,-0.90351 -5.71429,0 -8.57143,0 -4.7619,0 -9.52381,0 -14.28571,0 -4.76191,0 -9.52381,0 -14.28572,0 -1.90476,0 -3.90727,-0.60234 -5.71428,0 -5.17126,-1.72208 -5.31379,4.6284 -8.57143,5.71428 -1.80702,0.60234 -4.12943,-1.05657 -5.71429,0 -1.77192,1.18129 -1.35129,4.20844 -2.85714,5.71429 -3.01169,3.01169 -8.02123,3.15878 -11.42857,5.71429 -3.55664,2.66748 -11.02575,11.02574 -14.28572,14.28571 -0.95238,0.95238 -1.73647,2.11003 -2.85714,2.85714 -1.77192,1.18129 -4.20844,1.3513 -5.71428,2.85715 -7.21687,7.21686 -1.0979,3.29367 -2.85715,8.57142 -0.95238,1.90477 -1.90476,3.80953 -2.85714,5.71429 -0.95238,0 -2.18371,-0.67343 -2.85714,0 -0.67344,0.67344 0.30117,1.95364 0,2.85714 -0.67344,2.02031 -2.18371,3.69398 -2.85715,5.71429 -0.30117,0.90351 0,1.90476 0,2.85714 0,1.90476 0,3.80953 0,5.71429 0,2.27987 -0.57137,12.57159 0,14.28571 0.67344,2.02031 2.18371,3.69398 2.85715,5.71429 2.83507,8.50523 -6.76535,-5.8623 2.85714,8.57143 4.37594,6.5639 1.63199,-1.22515 8.57143,5.71428 1.50585,1.50585 1.15347,4.43653 2.85714,5.71429 20.67501,15.50625 -0.95238,-4.76191 14.28572,2.85714 2.40935,1.20468 3.40442,4.32837 5.71428,5.71429 4.63331,2.77998 15.64148,3.84634 20,5.71428 6.31243,2.70533 11.00019,8.35724 17.14286,11.42857 7.95131,3.97566 23.42769,8.76162 31.42857,11.42857 5.71429,1.90477 11.3735,3.98348 17.14286,5.71429 3.76116,1.12835 7.70331,1.61539 11.42857,2.85714 4.86554,1.62185 9.46577,3.96158 14.28571,5.71429 5.66074,2.05845 11.47038,3.6884 17.14286,5.71428 7.66309,2.73682 15.13757,5.99824 22.85714,8.57143 3.72526,1.24176 7.65289,1.77838 11.42857,2.85715 2.89582,0.82737 5.60072,2.36202 8.57143,2.85714 0.0486,0.008 12.60042,-0.56177 14.28572,0 2.0203,0.67343 3.69398,2.18371 5.71428,2.85714 1.80702,0.60234 3.80953,0 5.71429,0 0.95238,0 2.18371,0.67344 2.85714,0 0.67344,-0.67343 -0.67343,-2.18371 0,-2.85714 0.25641,-0.25641 8.49817,-0.14652 8.57143,0 0.85184,1.70367 0,3.80952 0,5.71428 0,0.95239 0.30117,1.95364 0,2.85715 -0.67344,2.0203 -2.34064,3.64828 -2.85714,5.71428 -0.46198,1.84789 0,3.80953 0,5.71429 0,4.7619 0.67343,9.57167 0,14.28571 -3.70898,25.96285 -2.85715,-13.00235 -2.85715,11.42857 0,21.11352 0.85184,-10.82529 -2.85714,11.42858 -0.62628,3.75769 0,7.61904 0,11.42857 0,6.66666 0,13.33333 0,20 0,2.85714 0,5.71428 0,8.57143 0,0.95238 0.42592,2.0053 0,2.85714 -0.60234,1.20468 -2.593,1.53643 -2.85714,2.85714 -1.4739,7.36951 1.06324,15.41445 0,22.85714 -1.12842,7.8989 -2.75989,15.47115 -5.71429,22.85715 -2.14008,5.35021 -3.5742,6.07835 -5.71428,11.42857 -1.64633,4.11582 -2.84264,10.45685 -5.71429,14.28571 -1.61624,2.155 -4.09804,3.5593 -5.71428,5.71429 -1.27776,1.70367 -1.67586,3.94236 -2.85715,5.71428 -0.80736,1.21104 -7.38928,7.98036 -8.57143,8.57143 -0.75126,0.37563 -9.93451,0 -11.42857,0 -1.98725,0 -13.25247,0.51662 -14.28571,0 -2.40936,-1.20467 -3.15878,-4.86245 -5.71429,-5.71428 -1.80701,-0.60234 -3.86639,0.46197 -5.71428,0 -5.17126,1.72208 -5.31379,-4.62841 -8.57143,-5.71429 -1.80702,-0.60234 -3.94576,0.70741 -5.71429,0 -5.12088,-2.04835 -8.73893,-7.18473 -14.28571,-8.57143 -1.84789,-0.46197 -4.06049,0.94503 -5.71429,0 -5.29473,-3.02556 -9.47207,-7.68463 -14.28571,-11.42857 -3.75882,-2.92352 -7.46643,-5.93 -11.42857,-8.57143 -1.77193,-1.18128 -3.80953,-1.90476 -5.71429,-2.85714 -3.80952,-1.90476 -7.47402,-4.13247 -11.42857,-5.71429 -2.79629,-1.11851 -5.80325,-1.67077 -8.57143,-2.85714 -7.38178,-3.16362 -13.62354,-6.64623 -20,-11.42857 -3.23249,-2.42437 -5.33894,-6.14706 -8.57143,-8.57143 -1.70367,-1.27775 -3.94236,-1.67586 -5.71428,-2.85714 -3.36199,-2.24133 -5.33894,-6.14706 -8.57143,-8.57143 -12.69841,-9.52381 0.31746,4.76191 -8.57143,-8.57143 -1.49422,-2.24133 -4.86245,-3.15878 -5.71429,-5.71428 -0.60233,-1.80702 0.60234,-3.90727 0,-5.71429 -0.42591,-1.27775 -2.11003,-1.73648 -2.85714,-2.85714 -1.18128,-1.77193 -1.90476,-3.80953 -2.85714,-5.71429 -0.95238,-1.90476 -2.4395,-3.62605 -2.85714,-5.71428 -0.56034,-2.80166 0,-5.71429 0,-8.57143 0,-8.57143 0,-17.14286 0,-25.71429 0,-3.80952 0,-7.61905 0,-11.42857 0,-4.7619 -1.03301,-9.6372 0,-14.28571 4.88387,-21.97743 5.20467,-1.83793 14.28571,-20 36.90232,-73.80464 -4.48925,-13.26613 40,-80 7.39705,-11.09558 13.65143,-16.50857 22.85714,-25.71429 7.61905,-7.61905 15.2381,-15.23809 22.85715,-22.85714 2.85714,-2.85715 5.28344,-6.22287 8.57142,-8.57143 3.46584,-2.4756 7.61905,-3.80952 11.42858,-5.71429 9.52381,-7.61904 18.70773,-15.68355 28.57142,-22.85714 3.80953,-2.77056 2.85715,1.81818 2.85715,2.85714 0,7.61905 -0.95238,-0.95238 2.85714,2.85715 1.34687,1.34687 -0.60234,3.90727 0,5.71428 6.89849,20.69548 -0.82372,-4.50459 5.71429,8.57143 0.42591,0.85184 0,1.90476 0,2.85714 0,1.90477 -0.60234,3.90727 0,5.71429 0.42591,1.27775 2.2548,1.65246 2.85714,2.85714 0.42592,0.85184 0,1.90476 0,2.85714 0,1.90477 -0.60234,3.90727 0,5.71429 0.42592,1.27775 2.2548,1.65247 2.85714,2.85714 2.69374,5.38748 3.34156,11.6065 5.71429,17.14286 1.67777,3.9148 4.49042,7.34902 5.71428,11.42857 1.66464,5.54879 1.55451,11.49811 2.85715,17.14286 1.55905,6.75588 4.15523,13.24412 5.71428,20 1.30264,5.64475 1.0252,11.64703 2.85714,17.14286 2.02031,6.06091 5.71429,11.42857 8.57143,17.14285 0.95238,1.90477 2.34064,3.64828 2.85715,5.71429 0.46197,1.84789 -0.46198,3.86639 0,5.71428 0.5165,2.06601 2.1837,3.69399 2.85714,5.71429 0.30117,0.90351 -0.42592,2.00531 0,2.85714 0.60234,1.20468 2.2548,1.65247 2.85714,2.85715 0.42592,0.85183 0,1.90476 0,2.85714 0,1.90476 -0.46197,3.86639 0,5.71428 -1.72208,5.17126 4.62841,5.31379 5.71429,8.57143 0.60234,1.80702 -0.46198,3.8664 0,5.71429 1.033,4.13201 4.5442,7.33327 5.71428,11.42857 1.33411,4.66936 1.67934,9.5745 2.85715,14.28571 -0.42221,5.67504 4.30531,9.35432 5.71428,14.28572 1.3341,4.66936 1.67934,9.5745 2.85714,14.28571 4.993,19.97197 0.39449,-4.53082 8.57143,20 0.68919,2.06757 -0.94182,10.48675 0,11.42857 0.67344,0.67344 2.85715,-0.95238 2.85715,0 0,0.95239 -1.90477,0 -2.85715,0"
       id="path3336"
       inkscape:connector-curvature="0" />
    <text
       xml:space="preserve"
       style="font-style:normal;font-weight:normal;font-size:40px;line-height:125%;font-family:sans-serif;letter-spacing:0px;word-spacing:0px;fill:#000000;fill-opacity:1;stroke:none;stroke-width:1px;stroke-linecap:butt;stroke-linejoin:miter;stroke-opacity:1"
       x="320"
       y="548.07648"
       id="text3338"
       sodipodi:linespacing="125%"><tspan
         sodipodi:role="line"
         id="tspan3340"
         x="320"
         y="548.07648">awarfawqrfaw</tspan></text>
  </g>
</svg>
